<?xml version="1.0" encoding="UTF-8"?>
<svg version="1.1" xmlns="http://www.w3.org/2000/svg" width="1024" height="1024">
<path d="M0 0 C337.92 0 675.84 0 1024 0 C1024 337.92 1024 675.84 1024 1024 C686.08 1024 348.16 1024 0 1024 C0 686.08 0 348.16 0 0 Z " fill="#FAFAFB" transform="translate(0,0)"/>
<path d="M0 0 C1.56394775 3.12789549 1.00914001 6.44846579 0.9375 9.875 C0.6971988 44.67862385 21.89138351 69.36023235 45 93 C46.41121852 94.38059108 47.82663278 95.75693743 49.25 97.125 C66.69796228 114.38372191 79.07824949 134.99447825 79.375 159.9375 C79.45886402 179.13732895 71.65757546 196.60550173 59 211 C50.86474393 218.7321578 40.31220976 227.94323459 29 230 C29.804375 229.113125 30.60875 228.22625 31.4375 227.3125 C42.60220996 214.19462565 52.44394391 198.91552776 52.3125 181.1875 C52.30404053 179.99338501 52.30404053 179.99338501 52.29541016 178.77514648 C51.83817503 156.59471592 35.84175089 140.39165133 20.80249023 125.82470703 C4.72103352 110.15422582 -11.05026779 90.00791122 -14 67 C-23.15994813 94.47984439 -9.54473974 130.48652296 -1.646698 156.83810425 C-0.51890511 160.60828858 0.59707976 164.38192911 1.7109375 168.15625 C1.91569199 168.84617538 2.12044647 169.53610077 2.33140564 170.24693298 C7.31707609 187.14739457 9.42556002 203.87912821 9.375 221.4375 C9.37445618 222.15745148 9.37391235 222.87740295 9.37335205 223.61917114 C9.33527025 234.61704365 8.51293704 244.50482784 5 255 C4.55662786 256.48079628 4.11667192 257.96261864 3.6796875 259.4453125 C-1.24424543 275.65855573 -8.64705242 289.62693461 -19 303 C-19.77730469 304.01320313 -20.55460938 305.02640625 -21.35546875 306.0703125 C-25.81531316 311.70460819 -30.41570764 316.49977092 -36 321 C-37.08020215 321.91314643 -38.15955462 322.82729847 -39.23828125 323.7421875 C-64.37209504 344.77994426 -94.43313805 357.15544023 -127.34033203 357.24023438 C-129.59836441 357.24988615 -131.85546374 357.28094282 -134.11328125 357.3125 C-152.40422291 357.44776146 -168.5413862 352.91400288 -182.0546875 340.04296875 C-192.18209335 329.43785507 -195.44344631 318.6194461 -195.203125 304.37890625 C-194.51138425 284.71069223 -183.02099428 269.114077 -169.6875 255.66796875 C-153.08847583 240.19792233 -132.12918156 230.01446112 -110.6875 223.3125 C-109.33797241 222.88408813 -109.33797241 222.88408813 -107.96118164 222.44702148 C-94.03392097 218.2428674 -80.34404488 216.47378175 -65.84326172 216.55395508 C-63.50008974 216.56249967 -61.1593425 216.53348231 -58.81640625 216.50195312 C-48.16690356 216.45342748 -38.16576476 217.71407319 -28 221 C-27.34 221.66 -26.68 222.32 -26 223 C-26.969375 222.9278125 -27.93875 222.855625 -28.9375 222.78125 C-68.87611182 219.94108141 -110.47581457 227.43341644 -141.86328125 254.078125 C-142.56839844 254.71234375 -143.27351563 255.3465625 -144 256 C-144.71542969 256.63421875 -145.43085938 257.2684375 -146.16796875 257.921875 C-151.24969128 262.68896931 -154.81114401 267.82041221 -158 274 C-158.62261719 275.18916016 -158.62261719 275.18916016 -159.2578125 276.40234375 C-162.71570025 283.8621925 -163.266975 291.52935297 -161.41015625 299.546875 C-158.4769036 307.38690511 -151.93059734 312.84839426 -144.5 316.375 C-135.83467055 320.05432639 -126.92062629 320.38763851 -117.625 320.375 C-115.77575928 320.37258301 -115.77575928 320.37258301 -113.88916016 320.37011719 C-99.834155 320.1833762 -86.81777234 317.85248769 -74 312 C-72.42605469 311.38898438 -72.42605469 311.38898438 -70.8203125 310.765625 C-57.07456983 305.31631053 -45.60915598 297.26936095 -35 287 C-34.31679688 286.401875 -33.63359375 285.80375 -32.9296875 285.1875 C-18.71434913 272.2543294 -9.97026555 250.89783944 -8.54296875 231.99609375 C-7.42635854 207.36699285 -15.6430109 180.62568068 -24.578125 157.875 C-26.37018891 153.23933552 -27.45157515 148.46120282 -28.5625 143.625 C-28.87477539 142.30242187 -28.87477539 142.30242187 -29.19335938 140.953125 C-29.81253979 138.30559497 -30.41127371 135.6544586 -31 133 C-31.18546387 132.17338867 -31.37092773 131.34677734 -31.56201172 130.49511719 C-36.24216124 108.57937541 -35.82608889 84.60429907 -30 63 C-29.80212891 62.2373584 -29.60425781 61.4747168 -29.40039062 60.68896484 C-27.31993033 52.7525811 -24.91906715 45.08334863 -21.30859375 37.6875 C-20.19243797 35.39521589 -19.16623014 33.09218173 -18.15234375 30.75390625 C-16.0514305 26.00559659 -13.65178028 21.47084109 -11.125 16.9375 C-10.51205078 15.81118164 -10.51205078 15.81118164 -9.88671875 14.66210938 C-6.98767609 9.43751068 -3.69879792 4.69008852 0 0 Z " fill="#262626" transform="translate(541,273)"/>
<path d="M0 0 C0.33 0 0.66 0 1 0 C1.26423825 6.87019458 0.37234708 13.27022107 -1 20 C-1.15984375 20.79019531 -1.3196875 21.58039063 -1.484375 22.39453125 C-4.66896452 35.02530186 -12.26626679 47.48918415 -21 57 C-21.69738281 57.77730469 -22.39476562 58.55460938 -23.11328125 59.35546875 C-30.56353134 67.25564513 -39.22381025 72.30083209 -48.9375 76.9375 C-49.5763916 77.24445801 -50.2152832 77.55141602 -50.87353516 77.86767578 C-54.2336055 79.41361109 -56.22286629 80 -60 80 C-60.0928125 80.5259375 -60.185625 81.051875 -60.28125 81.59375 C-63.37939606 91.96580421 -71.39646423 101.67429859 -78 110 C-78.67417969 110.87914062 -79.34835937 111.75828125 -80.04296875 112.6640625 C-95.08739492 131.80125001 -120.69263166 157.60332412 -145 164 C-145 164.66 -145 165.32 -145 166 C-147.7580077 167.15315544 -150.51762893 168.30173541 -153.28125 169.44140625 C-155.82031429 170.49460252 -158.33524786 171.59092901 -160.84375 172.71484375 C-171.91095572 177.59069011 -183.13042595 180.71450075 -195 183 C-195.96728027 183.18836426 -196.93456055 183.37672852 -197.93115234 183.57080078 C-206.28907964 185.03594063 -214.4457084 185.30929269 -222.90283203 185.26074219 C-225.12950642 185.24997822 -227.35538042 185.26072775 -229.58203125 185.2734375 C-255.75136323 185.30159982 -279.83162238 176.36550012 -299.125 158.4375 C-311.42767863 145.66465531 -317.68047411 130.35724617 -317.46899414 112.65454102 C-316.49469604 85.78668937 -302.27030465 63.98870426 -283.30078125 45.84375 C-276.73266605 39.81005627 -269.47337413 34.834056 -262 30 C-261.09894531 29.39800781 -260.19789063 28.79601562 -259.26953125 28.17578125 C-228.78594843 8.72143442 -186.25656933 1.4970687 -151.0625 8.875 C-136.78869928 12.17527197 -119.83153539 18.72317936 -109 29 C-109 29.66 -109 30.32 -109 31 C-112.55773166 29.68106906 -115.82984227 28.03718996 -119.16381836 26.23266602 C-146.49000496 11.66981218 -178.45354993 12.45862175 -208 19 C-209.258125 19.27328125 -210.51625 19.5465625 -211.8125 19.828125 C-244.34526437 27.47332463 -277.21461929 48.45902674 -295.01831055 77.02172852 C-296.02324352 78.67449207 -297.0122773 80.33689401 -298 82 C-298.64775391 83.05960938 -298.64775391 83.05960938 -299.30859375 84.140625 C-307.37537285 98.57921795 -308.81948367 118.34227093 -304.4375 134.125 C-299.00221998 148.74666879 -290.3502399 159.38355928 -276.35546875 166.30859375 C-262.445612 172.41675246 -248.14455804 176.05346512 -233 177 C-232.31421875 177.04527832 -231.6284375 177.09055664 -230.921875 177.13720703 C-211.33268585 178.23725783 -191.39206298 174.61025519 -173 168 C-171.66554761 167.57345065 -170.32955336 167.15169992 -168.9921875 166.734375 C-124.05783052 152.36088056 -89.7591373 118.62296594 -62 82 C-62.56920166 82.01047363 -63.13840332 82.02094727 -63.72485352 82.03173828 C-66.3373563 82.07365718 -68.94978799 82.09943888 -71.5625 82.125 C-72.45775391 82.14175781 -73.35300781 82.15851563 -74.27539062 82.17578125 C-79.60089905 82.21479596 -83.96370689 81.75475782 -89 80 C-88.61467027 72.67873508 -84.47617886 66.39653568 -79.328125 61.4140625 C-75.70973884 58.54299437 -71.7449804 57.0098105 -67.4375 55.4375 C-66.64174561 55.13577881 -65.84599121 54.83405762 -65.02612305 54.52319336 C-60.50120829 52.83233054 -55.96568095 51.36723808 -51.3125 50.0625 C-40.33217308 46.80444845 -30.57518585 41.0593877 -21.953125 33.56640625 C-20 32 -20 32 -17 31 C-16.29791012 29.68497452 -15.63521134 28.34860253 -15 27 C-13.94700378 25.80588058 -12.86066233 24.64068024 -11.75 23.5 C-5.82495079 16.88225193 -1.9633087 8.63855829 0 0 Z " fill="#2B2B2B" transform="translate(635,466)"/>
<path d="M0 0 C3.5625 0.25 3.5625 0.25 7 1 C8.28338566 3.56677133 8.13167087 5.39451348 8.14044189 8.26951599 C8.14900711 9.9457605 8.14900711 9.9457605 8.15774536 11.65586853 C8.15886322 12.88761307 8.15998108 14.1193576 8.16113281 15.38842773 C8.16609772 16.68112579 8.17106262 17.97382385 8.17617798 19.30569458 C8.189309 22.85731668 8.19574809 26.40891988 8.20018864 29.96056247 C8.20311773 32.17809286 8.20722219 34.39561805 8.21169281 36.61314583 C8.22536849 43.54737145 8.23503527 50.48158523 8.2388947 57.4158234 C8.24337828 65.42794936 8.26093962 73.43990496 8.2898953 81.4519791 C8.31148684 87.6405537 8.32159759 93.82908027 8.32293582 100.01769215 C8.32398551 103.71615553 8.32992803 107.41445879 8.34775543 111.11288261 C8.36724378 115.2360868 8.3629573 119.35893268 8.35644531 123.48217773 C8.3656601 124.71189804 8.37487488 125.94161835 8.3843689 127.20860291 C8.37879974 128.32891907 8.37323059 129.44923523 8.36749268 130.60350037 C8.36895924 131.57892509 8.3704258 132.5543498 8.3719368 133.55933285 C8 136 8 136 6.63718796 137.84899998 C5 139 5 139 2.4375 138.8125 C0 138 0 138 -2 136 C-2.25168228 133.66676331 -2.25168228 133.66676331 -2.25396729 130.68579102 C-2.25960693 129.55843536 -2.26524658 128.43107971 -2.27105713 127.26956177 C-2.26700867 126.02689545 -2.26296021 124.78422913 -2.25878906 123.50390625 C-2.2622937 122.19984833 -2.26579834 120.89579041 -2.26940918 119.55221558 C-2.27854644 115.96963175 -2.27498348 112.38716278 -2.26865101 108.80457687 C-2.2635979 105.06055129 -2.26828054 101.31653573 -2.27142334 97.57250977 C-2.275065 91.28432443 -2.27025866 84.99618603 -2.26074219 78.70800781 C-2.24985723 71.43141068 -2.25338267 64.1549256 -2.264395 56.87833118 C-2.27346219 50.63796178 -2.27475595 44.39762617 -2.26951766 38.15725231 C-2.26639482 34.4270106 -2.26599718 30.69682161 -2.27259064 26.96658325 C-2.27942461 22.80968557 -2.26996065 18.65298199 -2.25878906 14.49609375 C-2.26283752 13.25342743 -2.26688599 12.01076111 -2.27105713 10.73043823 C-2.26259766 9.03940475 -2.26259766 9.03940475 -2.25396729 7.31420898 C-2.25321323 6.33048813 -2.25245918 5.34676727 -2.25168228 4.33323669 C-2 2 -2 2 0 0 Z " fill="#26B5B1" transform="translate(289,415)"/>
<path d="M0 0 C6.875 0.875 6.875 0.875 8 2 C8.10272132 3.68863765 8.13520648 5.38158276 8.14044189 7.07333374 C8.14900711 8.72227379 8.14900711 8.72227379 8.15774536 10.40452576 C8.15886322 11.62116409 8.15998108 12.83780243 8.16113281 14.09130859 C8.16609772 15.36435349 8.17106262 16.63739838 8.17617798 17.94902039 C8.18932534 21.45111649 8.19575152 24.9531934 8.20018864 28.45531034 C8.20311573 30.64151107 8.20721984 32.8277065 8.21169281 35.01390457 C8.22537416 41.84882152 8.23503758 48.68372644 8.2388947 55.51865613 C8.24337659 63.41816222 8.26092776 71.31749538 8.2898953 79.21694887 C8.31148819 85.31633212 8.3215977 91.41566664 8.32293582 97.51508772 C8.32398562 101.16102906 8.3299301 104.80680798 8.34775543 108.4527092 C8.3672463 112.51854754 8.36295675 116.58402255 8.35644531 120.64990234 C8.3656601 121.86249222 8.37487488 123.07508209 8.3843689 124.32441711 C8.37601517 125.98181664 8.37601517 125.98181664 8.36749268 127.67269897 C8.36895924 128.63467382 8.3704258 129.59664867 8.3719368 130.58777428 C8 133 8 133 6.63718796 134.84467506 C5 136 5 136 2.4375 135.8125 C0 135 0 135 -2 133 C-2.25168228 130.7320261 -2.25168228 130.7320261 -2.25396729 127.84437561 C-2.25960693 126.75212173 -2.26524658 125.65986786 -2.27105713 124.53451538 C-2.26700867 123.33082306 -2.26296021 122.12713074 -2.25878906 120.88696289 C-2.2622937 119.62352554 -2.26579834 118.3600882 -2.26940918 117.05836487 C-2.27854634 113.58727938 -2.27498328 110.11631244 -2.26865101 106.64522481 C-2.26359675 103.01644518 -2.26828096 99.38767589 -2.27142334 95.75889587 C-2.27506513 89.66321994 -2.27025881 83.56759242 -2.26074219 77.47192383 C-2.24986208 70.42142416 -2.25337909 63.3710402 -2.264395 56.32054335 C-2.27346764 50.27208848 -2.27475312 44.22366846 -2.26951766 38.17520899 C-2.2663972 34.5606299 -2.26599058 30.94610522 -2.27259064 27.33152962 C-2.27943434 23.30176048 -2.2699517 19.27219109 -2.25878906 15.24243164 C-2.26486176 13.4399295 -2.26486176 13.4399295 -2.27105713 11.60101318 C-2.26541748 10.50593948 -2.25977783 9.41086578 -2.25396729 8.28260803 C-2.25321323 7.32930634 -2.25245918 6.37600466 -2.25168228 5.39381504 C-2 3 -2 3 0 0 Z " fill="#677682" transform="translate(734,414)"/>
<path d="M0 0 C2.49568507 2.49568507 2.25251652 3.25562922 2.26069641 6.70005798 C2.26778122 7.69134201 2.27486603 8.68262604 2.28216553 9.70394897 C2.27968811 10.79543243 2.27721069 11.88691589 2.2746582 13.01147461 C2.27976913 14.15786911 2.28488007 15.30426361 2.29014587 16.48539734 C2.30409467 20.29109862 2.30308112 24.09661988 2.30078125 27.90234375 C2.30466525 30.53788827 2.3089993 33.17343215 2.31376648 35.80897522 C2.3219866 41.33970751 2.32106669 46.87038874 2.31567383 52.40112305 C2.30963307 58.79729013 2.32194542 65.1932373 2.3432439 71.58936685 C2.36296736 77.73819216 2.36603561 83.88691443 2.36250877 90.03576851 C2.36302356 92.65412475 2.3682905 95.27248438 2.37832069 97.89082146 C2.39060707 101.54709872 2.38393998 105.2028623 2.37231445 108.85913086 C2.37995819 109.94859009 2.38760193 111.03804932 2.39547729 112.16052246 C2.38846298 113.15462631 2.38144867 114.14873016 2.3742218 115.17295837 C2.37438954 116.03776793 2.37455729 116.9025775 2.37473011 117.79359341 C1.91731625 120.486841 1.19443986 121.40911853 -1 123 C-4.34192692 122.75546876 -5.60543557 122.39456443 -8 120 C-8.25447559 117.93505192 -8.25447559 117.93505192 -8.26069641 115.33790588 C-8.26778122 114.35503601 -8.27486603 113.37216614 -8.28216553 112.35951233 C-8.27968811 111.27737961 -8.27721069 110.19524689 -8.2746582 109.08032227 C-8.27976913 107.94368134 -8.28488007 106.80704041 -8.29014587 105.63595581 C-8.3040944 101.86271969 -8.30308114 98.08966515 -8.30078125 94.31640625 C-8.30466527 91.70328198 -8.30899932 89.09015833 -8.31376648 86.47703552 C-8.32198653 80.99338154 -8.32106673 75.50977906 -8.31567383 70.02612305 C-8.3096331 63.6844868 -8.32194537 57.34307236 -8.3432439 51.00147396 C-8.36296769 44.90497418 -8.36603557 38.8085783 -8.36250877 32.71204948 C-8.36302355 30.1160219 -8.36829031 27.51999088 -8.37832069 24.92398262 C-8.39060747 21.29883689 -8.38393975 17.67420922 -8.37231445 14.04907227 C-8.37995819 12.96896378 -8.38760193 11.88885529 -8.39547729 10.77601624 C-8.38846298 9.79032654 -8.38144867 8.80463684 -8.3742218 7.78907776 C-8.37438954 6.93164254 -8.37455729 6.07420732 -8.37473011 5.19078922 C-7.54572149 0.34414597 -4.5236853 -0.57995965 0 0 Z " fill="#66747F" transform="translate(713,442)"/>
<path d="M0 0 C2.5 -0.3125 2.5 -0.3125 5 0 C7.41245396 2.41245396 7.25077151 2.95717055 7.25396729 6.2512207 C7.26242676 7.58885971 7.26242676 7.58885971 7.27105713 8.95352173 C7.26700867 9.93436737 7.26296021 10.91521301 7.25878906 11.92578125 C7.2622937 12.9567392 7.26579834 13.98769714 7.26940918 15.04989624 C7.27823937 18.47083188 7.27237275 21.89156211 7.265625 25.3125 C7.26697128 27.68139689 7.2689115 30.05029351 7.27142334 32.41918945 C7.27437635 37.38918686 7.27007124 42.35911248 7.26074219 47.32910156 C7.24934761 53.71189589 7.25590613 60.09452203 7.26788712 66.47731018 C7.27510091 71.37049638 7.27281999 76.26364245 7.26763153 81.15682983 C7.2662937 83.51085429 7.26794737 85.86488234 7.27259064 88.21890259 C7.27764795 91.50410669 7.26995672 94.78903527 7.25878906 98.07421875 C7.26283752 99.05506439 7.26688599 100.03591003 7.27105713 101.04647827 C7.26541748 101.93823761 7.25977783 102.82999695 7.25396729 103.7487793 C7.25321323 104.52601852 7.25245918 105.30325775 7.25168228 106.10404968 C7 108 7 108 5 110 C2.5 110.25 2.5 110.25 0 110 C-2.40384728 107.59615272 -2.25075106 107.07160638 -2.25396729 103.79347229 C-2.25960693 102.91157227 -2.26524658 102.02967224 -2.27105713 101.12104797 C-2.26700867 100.15112411 -2.26296021 99.18120026 -2.25878906 98.18188477 C-2.2622937 97.16228668 -2.26579834 96.1426886 -2.26940918 95.0921936 C-2.27823996 91.70852935 -2.27237211 88.32507277 -2.265625 84.94140625 C-2.26697137 82.59732523 -2.26891166 80.25324449 -2.27142334 77.90916443 C-2.27437652 72.99044136 -2.2700711 68.07179082 -2.26074219 63.15307617 C-2.24935387 56.8398819 -2.25590206 50.52685778 -2.26788712 44.21366978 C-2.27510582 39.37105522 -2.27281762 34.52848116 -2.26763153 29.6858654 C-2.26629474 27.35778725 -2.26794377 25.02970545 -2.27259064 22.70163155 C-2.27765528 19.45015824 -2.26994602 16.19896235 -2.25878906 12.94750977 C-2.26283752 11.97961014 -2.26688599 11.01171051 -2.27105713 10.01448059 C-2.26541748 9.12976074 -2.25977783 8.24504089 -2.25396729 7.33351135 C-2.25321323 6.56456826 -2.25245918 5.79562517 -2.25168228 5.00338078 C-2 3 -2 3 0 0 Z " fill="#24B8B2" transform="translate(262,445)"/>
<path d="M0 0 C2.375 0.6875 2.375 0.6875 3.375 1.6875 C3.48101865 4.81237043 3.52177424 7.91526174 3.52026367 11.04077148 C3.52362228 12.02281555 3.5269809 13.00485962 3.53044128 14.0166626 C3.53998274 17.28065232 3.54189598 20.54459093 3.54296875 23.80859375 C3.54617906 26.06681846 3.54954295 28.32504295 3.55305481 30.58326721 C3.55905405 35.32382693 3.56089389 40.06436839 3.56030273 44.80493164 C3.56020105 50.89292085 3.5738558 56.98079357 3.59107494 63.06875515 C3.60216869 67.7346094 3.60422276 72.40043525 3.60369301 77.06630135 C3.604877 79.3114773 3.60932205 81.55665389 3.61702538 83.80181694 C3.62677263 86.93624002 3.62396815 90.07040718 3.61791992 93.20483398 C3.62634918 94.60832848 3.62634918 94.60832848 3.63494873 96.04017639 C3.63075424 96.89131012 3.62655975 97.74244385 3.62223816 98.61936951 C3.62278293 99.36103583 3.62332769 100.10270216 3.62388897 100.86684322 C3.375 102.6875 3.375 102.6875 1.375 104.6875 C-1.92214793 104.35778521 -3.2476839 104.0648161 -5.625 101.6875 C-5.87947559 99.88525391 -5.87947559 99.88525391 -5.88569641 97.6640625 C-5.89278122 96.82278809 -5.89986603 95.98151367 -5.90716553 95.11474609 C-5.90468811 94.19000488 -5.90221069 93.26526367 -5.8996582 92.3125 C-5.9073246 90.85384521 -5.9073246 90.85384521 -5.91514587 89.36572266 C-5.92908777 86.13958647 -5.9280818 82.91366279 -5.92578125 79.6875 C-5.92966535 77.45312418 -5.93399942 75.21874911 -5.93876648 72.984375 C-5.94623838 68.29685067 -5.94593017 63.60940165 -5.94067383 58.921875 C-5.93487475 52.90222439 -5.95181628 46.88288102 -5.9750185 40.86328125 C-5.98971858 36.24802841 -5.99063269 31.63285022 -5.98750877 27.01757812 C-5.98802376 24.79751984 -5.99329447 22.57745757 -6.00332069 20.35742188 C-6.01559712 17.25890876 -6.00894667 14.16100271 -5.99731445 11.0625 C-6.00495819 10.13775879 -6.01260193 9.21301758 -6.02047729 8.26025391 C-6.01346298 7.41897949 -6.00644867 6.57770508 -5.9992218 5.7109375 C-5.99938954 4.97794434 -5.99955729 4.24495117 -5.99973011 3.48974609 C-5.28888915 0.07099133 -3.13863241 -0.37364672 0 0 Z " fill="#677581" transform="translate(764.625,445.3125)"/>
<path d="M0 0 C2.5 0.25 2.5 0.25 4.5 2.25 C4.75396729 5.20372009 4.75396729 5.20372009 4.75878906 9.03881836 C4.7622937 9.73654861 4.76579834 10.43427887 4.76940918 11.15315247 C4.7782299 13.46548336 4.77237566 15.7775096 4.765625 18.08984375 C4.76697171 19.69405679 4.76891229 21.29826944 4.77142334 22.90248108 C4.77437519 26.26762775 4.77007563 29.63266837 4.76074219 32.99780273 C4.74935674 37.313397 4.7559009 41.62874226 4.76788712 45.94432735 C4.77511194 49.25828428 4.77281477 52.57218212 4.76763153 55.88614082 C4.76629628 57.47737215 4.76793841 59.06860882 4.77259064 60.65983391 C4.77766512 62.88396292 4.76993253 65.10768819 4.75878906 67.33178711 C4.75640228 69.23135414 4.75640228 69.23135414 4.75396729 71.16929626 C4.5 74.25 4.5 74.25 2.5 77.25 C0 77.5625 0 77.5625 -2.5 77.25 C-5.37185266 74.37814734 -4.75381452 72.37508355 -4.75878906 68.35351562 C-4.7622937 67.64442551 -4.76579834 66.93533539 -4.76940918 66.20475769 C-4.77822921 63.85515625 -4.77237652 61.50585463 -4.765625 59.15625 C-4.76697158 57.52722109 -4.76891204 55.89819257 -4.77142334 54.26916504 C-4.77437497 50.85274433 -4.77007577 47.43642811 -4.76074219 44.02001953 C-4.74934758 39.63482599 -4.75590686 35.24987724 -4.76788712 30.86469269 C-4.77510471 27.50016425 -4.77281826 24.13569411 -4.76763153 20.77116394 C-4.76629475 19.15398632 -4.76794374 17.53680345 -4.77259064 15.91963196 C-4.77765428 13.66177291 -4.76994826 11.40431356 -4.75878906 9.14648438 C-4.75719788 7.86012085 -4.75560669 6.57375732 -4.75396729 5.24841309 C-4.4350617 1.48331912 -3.8355631 0.38355631 0 0 Z " fill="#6D7C87" transform="translate(684.5,466.75)"/>
<path d="M0 0 C2.4375 0.8125 2.4375 0.8125 4.4375 2.8125 C4.69146729 5.50720215 4.69146729 5.50720215 4.69628906 8.97460938 C4.70259338 10.26935181 4.70889771 11.56409424 4.71539307 12.89807129 C4.71181339 14.31746557 4.70771146 15.73685862 4.703125 17.15625 C4.70447169 18.605917 4.70641226 20.05558357 4.70892334 21.50524902 C4.71187442 24.54504695 4.70757756 27.58472743 4.69824219 30.62451172 C4.68684756 34.52544249 4.69340713 38.42609807 4.70538712 42.32701874 C4.71260621 45.32096438 4.71031758 48.31484453 4.70513153 51.30879211 C4.70379517 52.74734021 4.7054423 54.18589421 4.71009064 55.62443542 C4.7151564 57.63308604 4.70606944 59.64175743 4.69628906 61.65039062 C4.69390228 63.3667572 4.69390228 63.3667572 4.69146729 65.11779785 C4.4375 67.8125 4.4375 67.8125 2.4375 69.8125 C-0.30565038 70.16418595 -1.88976483 70.27885275 -4.19839478 68.6784668 C-6.16575609 65.98730278 -5.94363221 63.95707698 -5.95068359 60.64453125 C-5.96014008 59.37311279 -5.96959656 58.10169434 -5.9793396 56.79174805 C-5.97396991 55.40282887 -5.96781696 54.01391252 -5.9609375 52.625 C-5.96295839 51.20157726 -5.96586995 49.77815553 -5.96963501 48.35473633 C-5.97405771 45.37213276 -5.96762935 42.38979879 -5.95361328 39.40722656 C-5.93652103 35.58364909 -5.94636255 31.76070334 -5.96433067 27.93714905 C-5.97517019 24.99803913 -5.97172149 22.05907903 -5.9639473 19.1199646 C-5.96194573 17.71015346 -5.96440306 16.30032872 -5.97138596 14.89053345 C-5.97900223 12.92051452 -5.96533579 10.95044791 -5.95068359 8.98046875 C-5.94829681 7.85922607 -5.94591003 6.7379834 -5.94345093 5.58276367 C-5.5625 2.8125 -5.5625 2.8125 -4.19839478 0.9152832 C-2.5625 -0.1875 -2.5625 -0.1875 0 0 Z " fill="#37BBB3" transform="translate(239.5625,465.1875)"/>
<path d="M0 0 C2.5625 0.3125 2.5625 0.3125 4.19839478 1.46948242 C6.11694063 4.06159457 5.94339507 5.90632883 5.95068359 9.11328125 C5.96014008 10.3046167 5.96959656 11.49595215 5.9793396 12.72338867 C5.97326691 14.01092041 5.96719421 15.29845215 5.9609375 16.625 C5.96295855 17.95874185 5.96587026 19.29248263 5.96963501 20.6262207 C5.97405696 23.42051726 5.9676319 26.21452598 5.95361328 29.00878906 C5.93652094 32.59024465 5.94636289 36.17102582 5.96433067 39.75245667 C5.97517231 42.50627726 5.97172054 45.25993801 5.9639473 48.01376343 C5.96097329 49.97638385 5.97008292 51.93901048 5.9793396 53.90161133 C5.96988312 55.09294678 5.96042664 56.28428223 5.95068359 57.51171875 C5.94829681 58.56190186 5.94591003 59.61208496 5.94345093 60.6940918 C5.5625 63.3125 5.5625 63.3125 4.19839478 65.18676758 C2.5625 66.3125 2.5625 66.3125 0 66.125 C-2.4375 65.3125 -2.4375 65.3125 -4.4375 63.3125 C-4.69146729 60.76965332 -4.69146729 60.76965332 -4.69628906 57.51757812 C-4.70259338 56.3029187 -4.70889771 55.08825928 -4.71539307 53.83679199 C-4.7113446 52.51908813 -4.70729614 51.20138428 -4.703125 49.84375 C-4.70447176 48.48376394 -4.70641239 47.12377835 -4.70892334 45.76379395 C-4.71187409 42.91230693 -4.70757864 40.06094513 -4.69824219 37.20947266 C-4.68684754 33.55067223 -4.69340729 29.8921652 -4.70538712 26.23337555 C-4.71260712 23.42472108 -4.71031717 20.61613641 -4.70513153 17.80747986 C-4.70314461 15.80105398 -4.70922863 13.7946254 -4.71539307 11.78820801 C-4.70908875 10.57354858 -4.70278442 9.35888916 -4.69628906 8.10742188 C-4.69469788 7.03423706 -4.69310669 5.96105225 -4.69146729 4.85534668 C-4.34447707 1.38110824 -3.47116847 0.4450216 0 0 Z " fill="#6B7883" transform="translate(789.4375,466.6875)"/>
<path d="M0 0 C2.61580479 0.3269756 4.64078137 0.82039068 7 2 C7.07593983 9.4930168 7.12855332 16.98593471 7.16479492 24.47924805 C7.17990005 27.02941598 7.20038533 29.57955786 7.22631836 32.12963867 C7.26262504 35.79091819 7.27970915 39.45185485 7.29296875 43.11328125 C7.30845261 44.2571077 7.32393646 45.40093414 7.33988953 46.579422 C7.34022942 48.17073189 7.34022942 48.17073189 7.34057617 49.79418945 C7.34723801 50.72906693 7.35389984 51.6639444 7.36076355 52.62715149 C7 55 7 55 5.64277649 56.84098816 C4 58 4 58 1.375 57.75 C-1 57 -1 57 -2 56 C-2.10397018 54.32291576 -2.13852909 52.64147209 -2.14526367 50.96118164 C-2.15164352 49.88659195 -2.15802338 48.81200226 -2.16459656 47.70484924 C-2.16570938 46.53510056 -2.1668222 45.36535187 -2.16796875 44.16015625 C-2.17129715 42.96772812 -2.17462555 41.77529999 -2.17805481 40.54673767 C-2.18312916 38.01887397 -2.18546298 35.49100355 -2.18530273 32.96313477 C-2.1874886 29.08273346 -2.20563757 25.20261654 -2.22460938 21.32226562 C-2.22754323 18.87239681 -2.22952808 16.42252664 -2.23046875 13.97265625 C-2.23765427 12.80493179 -2.24483978 11.63720734 -2.25224304 10.43409729 C-2.24916641 9.35635544 -2.24608978 8.27861359 -2.24291992 7.16821289 C-2.24434494 6.21636612 -2.24576996 5.26451935 -2.24723816 4.28382874 C-2 2 -2 2 0 0 Z " fill="#28B4AC" transform="translate(317,460)"/>
<path d="M0 0 C2.97 0.495 2.97 0.495 6 1 C6.02526563 8.81452752 6.04283105 16.62904458 6.05493164 24.44360352 C6.05997383 27.10441481 6.06680736 29.76522332 6.07543945 32.42602539 C6.08751009 36.24105516 6.09322929 40.05604844 6.09765625 43.87109375 C6.10281754 45.06899033 6.10797882 46.2668869 6.11329651 47.50108337 C6.11337204 48.6021492 6.11344757 49.70321503 6.11352539 50.83764648 C6.115746 51.81249496 6.11796661 52.78734344 6.12025452 53.79173279 C6 56 6 56 5 57 C2.5625 57.1875 2.5625 57.1875 0 57 C-2.53991222 54.46008778 -2.25263677 53.56671866 -2.25878906 50.04711914 C-2.26824554 48.50025169 -2.26824554 48.50025169 -2.27789307 46.9221344 C-2.2738446 45.80443161 -2.26979614 44.68672882 -2.265625 43.53515625 C-2.26753845 42.39090683 -2.2694519 41.24665741 -2.27142334 40.06773376 C-2.27278632 37.64419332 -2.26908203 35.22064561 -2.26074219 32.79711914 C-2.2500543 29.08137636 -2.26062889 25.36611818 -2.2734375 21.65039062 C-2.27211573 19.2994781 -2.26955299 16.94856587 -2.265625 14.59765625 C-2.27169769 12.92413841 -2.27169769 12.92413841 -2.27789307 11.21681213 C-2.27158875 10.18241501 -2.26528442 9.14801788 -2.25878906 8.08227539 C-2.25640228 6.71565514 -2.25640228 6.71565514 -2.25396729 5.32142639 C-2 3 -2 3 0 0 Z " fill="#667681" transform="translate(658,477)"/>
<path d="M0 0 C3 0.25 3 0.25 5 2.25 C5.21193558 4.86763995 5.3039819 7.37684705 5.30078125 9.99609375 C5.30506638 10.76301041 5.3093515 11.52992706 5.31376648 12.32008362 C5.31951323 13.94327812 5.32000749 15.56649838 5.31567383 17.18969727 C5.3125166 19.67443794 5.33595754 22.15798502 5.36132812 24.64257812 C5.36360136 26.2187485 5.3643045 27.79492207 5.36328125 29.37109375 C5.372491 30.11491806 5.38170074 30.85874237 5.39118958 31.62510681 C5.34518498 36.75117957 5.34518498 36.75117957 3.63745117 39.21899414 C1.28920726 40.69754402 -0.28785042 40.66725378 -3 40.25 C-5.47558143 36.53662786 -5.28901058 33.66772859 -5.265625 29.37109375 C-5.26753845 28.60322037 -5.2694519 27.83534698 -5.27142334 27.04420471 C-5.27278317 25.42277702 -5.26910078 23.80133836 -5.26074219 22.17993164 C-5.25002489 19.6932747 -5.26065148 17.2073378 -5.2734375 14.72070312 C-5.27211616 13.14583173 -5.26955428 11.57096079 -5.265625 9.99609375 C-5.26967346 9.25024521 -5.27372192 8.50439667 -5.27789307 7.73594666 C-5.21126603 0.43427217 -5.21126603 0.43427217 0 0 Z " fill="#34B9B4" transform="translate(213,482.75)"/>
<path d="M0 0 C6.04402045 1.04948472 10.202188 5.971485 13.875 10.5625 C15.21409222 13.91023055 15.27878273 16.49575258 14.875 20.0625 C11.58313614 22.2570759 10.69356772 22.72125876 6.875 22.0625 C4.74020583 20.31850148 2.97992076 18.68741457 1.125 16.6875 C0.63128906 16.17960937 0.13757813 15.67171875 -0.37109375 15.1484375 C-5.06051044 10.26630505 -5.06051044 10.26630505 -5.3125 5.5625 C-5.07073777 1.04960499 -4.58166687 0.09163334 0 0 Z " fill="#1EB6B8" transform="translate(596.125,348.9375)"/>
<path d="M0 0 C3.29714793 0.32971479 4.6226839 0.6226839 7 3 C7.25878906 5.67382812 7.25878906 5.67382812 7.265625 9.03125 C7.26820313 10.23394531 7.27078125 11.43664062 7.2734375 12.67578125 C7.26570312 13.93777344 7.25796875 15.19976562 7.25 16.5 C7.25773438 17.76199219 7.26546875 19.02398437 7.2734375 20.32421875 C7.27085937 21.52691406 7.26828125 22.72960937 7.265625 23.96875 C7.26336914 25.07669922 7.26111328 26.18464844 7.25878906 27.32617188 C7 30 7 30 5 32 C1.9375 32.1875 1.9375 32.1875 -1 32 C-3.33716009 29.66283991 -2.17162619 23.81167112 -2.18554688 20.70117188 C-2.18546631 20.0223999 -2.18538574 19.34362793 -2.18530273 18.64428711 C-2.18748734 16.57449736 -2.20563491 14.50524207 -2.22460938 12.43554688 C-2.22654297 11.13810547 -2.22847656 9.84066406 -2.23046875 8.50390625 C-2.23457764 7.30580322 -2.23868652 6.1077002 -2.24291992 4.87329102 C-2 2 -2 2 0 0 Z " fill="#67747F" transform="translate(814,484)"/>
<path d="M0 0 C4.70588235 0.70588235 4.70588235 0.70588235 6 2 C6.25035974 5.30516934 6.18521952 8.62396041 6.1875 11.9375 C6.19974609 12.87013672 6.21199219 13.80277344 6.22460938 14.76367188 C6.22654297 15.65505859 6.22847656 16.54644531 6.23046875 17.46484375 C6.23457764 18.285896 6.23868652 19.10694824 6.24291992 19.95288086 C6 22 6 22 4 24 C1.375 23.625 1.375 23.625 -1 23 C-1.02887512 19.35418313 -1.04675585 15.70839537 -1.0625 12.0625 C-1.07087891 11.02158203 -1.07925781 9.98066406 -1.08789062 8.90820312 C-1.09272461 7.42416992 -1.09272461 7.42416992 -1.09765625 5.91015625 C-1.10289307 4.99371338 -1.10812988 4.07727051 -1.11352539 3.13305664 C-1 1 -1 1 0 0 Z " fill="#62737E" transform="translate(637,502)"/>
<path d="M0 0 C3.4375 0.8125 3.4375 0.8125 5.4375 2.8125 C5.98989643 9.77269496 5.98989643 9.77269496 4.375 12.8125 C1.34750701 14.37507703 -1.22634962 14.1157864 -4.5625 13.8125 C-6.97736943 11.39763057 -6.8586925 10.68542211 -6.875 7.375 C-6.89175781 6.59253906 -6.90851562 5.81007813 -6.92578125 5.00390625 C-6.5625 2.8125 -6.5625 2.8125 -5.265625 1.015625 C-3.5625 -0.1875 -3.5625 -0.1875 0 0 Z " fill="#6D7983" transform="translate(843.5625,494.1875)"/>
<path d="M0 0 C2.5 0.25 2.5 0.25 4.5 2.25 C4.80078125 4.96484375 4.80078125 4.96484375 4.8125 8.1875 C4.82925781 9.24839844 4.84601563 10.30929687 4.86328125 11.40234375 C4.5 14.25 4.5 14.25 3.14453125 16.14453125 C1.5 17.25 1.5 17.25 -1.125 17 C-3.5 16.25 -3.5 16.25 -4.5 15.25 C-4.62537741 13.10692104 -4.67574364 10.95921114 -4.6875 8.8125 C-4.70167969 7.63816406 -4.71585938 6.46382813 -4.73046875 5.25390625 C-4.44092294 1.47999564 -3.84101452 0.38410145 0 0 Z " fill="#3CC2BB" transform="translate(187.5,493.75)"/>
<path d="M0 0 C2.625 -0.1875 2.625 -0.1875 5 0 C3.71034824 1.37562854 2.37310707 2.70766393 1 4 C0.34 4 -0.32 4 -1 4 C-1 38.32 -1 72.64 -1 108 C-1.33 108 -1.66 108 -2 108 C-2.04628067 94.3615268 -2.08184747 80.7230722 -2.10362434 67.08453655 C-2.11407459 60.75204895 -2.12825644 54.41961495 -2.15087891 48.0871582 C-2.17256301 41.97934757 -2.18455927 35.87158859 -2.18975449 29.76374245 C-2.19345822 27.43007404 -2.20069038 25.09640856 -2.21146011 22.76276207 C-2.22591603 19.5015279 -2.22798041 16.24050894 -2.22705078 12.97924805 C-2.23424133 12.00820633 -2.24143188 11.03716461 -2.24884033 10.03669739 C-2.246091 9.14908722 -2.24334167 8.26147705 -2.24050903 7.3469696 C-2.24235262 6.57542888 -2.24419621 5.80388815 -2.24609566 5.0089674 C-2 3 -2 3 0 0 Z " fill="#6CCAC5" transform="translate(262,445)"/>
<path d="M0 0 C10.94436142 3.07210145 22.21907723 8.71825916 31 16 C31 16.66 31 17.32 31 18 C27.38580553 16.65679363 24.03347031 14.98916885 20.63085938 13.18164062 C12.27419222 8.7795404 4.23016372 6.01578288 -5 4 C-4.360625 3.71125 -3.72125 3.4225 -3.0625 3.125 C-0.84793921 2.17176549 -0.84793921 2.17176549 0 0 Z " fill="#424141" transform="translate(495,479)"/>
<path d="M0 0 C2.5 0.25 2.5 0.25 4.5 2.25 C4.75 5.75 4.75 5.75 4.5 9.25 C2.5 11.25 2.5 11.25 0 11.5 C-2.5 11.25 -2.5 11.25 -4.5 9.25 C-4.75 5.75 -4.75 5.75 -4.5 2.25 C-2.5 0.25 -2.5 0.25 0 0 Z " fill="#31B8B2" transform="translate(165.5,495.75)"/>
<path d="M0 0 C2.5625 0.1875 2.5625 0.1875 4.5625 2.1875 C4.8125 4.6875 4.8125 4.6875 4.5625 7.1875 C2.5625 9.1875 2.5625 9.1875 0.0625 9.5 C-1.175 9.3453125 -1.175 9.3453125 -2.4375 9.1875 C-4.4375 6.1875 -4.4375 6.1875 -4.125 3.5625 C-3.16420807 0.24340062 -3.16420807 0.24340062 0 0 Z " fill="#6B7B88" transform="translate(736.4375,570.8125)"/>
<path d="M0 0 C2.625 0.25 2.625 0.25 4.5 1.5 C5.625 3.25 5.625 3.25 5.4375 5.3125 C4.625 7.25 4.625 7.25 2.625 9.25 C-1.93055556 8.69444444 -1.93055556 8.69444444 -3.375 7.25 C-3.5 4.25 -3.5 4.25 -3.375 1.25 C-2.375 0.25 -2.375 0.25 0 0 Z " fill="#41BFB8" transform="translate(289.375,570.75)"/>
<path d="M0 0 C7.59 0 15.18 0 23 0 C22.12650515 3.49397942 21.19458184 5.68637013 19.4375 8.75 C18.98246094 9.54921875 18.52742187 10.3484375 18.05859375 11.171875 C17.70925781 11.77515625 17.35992188 12.3784375 17 13 C16.01 12.34 15.02 11.68 14 11 C16.31 8.03 18.62 5.06 21 2 C14.4 2 7.8 2 1 2 C0.67 1.34 0.34 0.68 0 0 Z " fill="#414142" transform="translate(552,546)"/>
<path d="M0 0 C6.67504714 -0.42381252 12.52986564 0.35968211 19 1.875 C19.754021 2.04870117 20.50804199 2.22240234 21.28491211 2.40136719 C26.74031335 3.74031335 26.74031335 3.74031335 29 6 C23.72 5.67 18.44 5.34 13 5 C13 4.34 13 3.68 13 3 C11.35 3 9.7 3 8 3 C8 2.67 8 2.34 8 2 C5.36 1.67 2.72 1.34 0 1 C0 0.67 0 0.34 0 0 Z " fill="#444444" transform="translate(486,490)"/>
<path d="M0 0 C0.33 0 0.66 0 1 0 C1.26404456 6.86515862 0.25841946 13.25846717 -1 20 C-1.33 19.01 -1.66 18.02 -2 17 C-3.65 17.33 -5.3 17.66 -7 18 C-6.57847656 17.03578125 -6.15695312 16.0715625 -5.72265625 15.078125 C-5.16910968 13.80215324 -4.61573319 12.52610767 -4.0625 11.25 C-3.78470703 10.61578125 -3.50691406 9.9815625 -3.22070312 9.328125 C-1.89279106 6.25632842 -0.65633833 3.28999974 0 0 Z " fill="#3B3A3A" transform="translate(635,466)"/>
<path d="M0 0 C1.65 0.33 3.3 0.66 5 1 C5.625 3.375 5.625 3.375 6 6 C5.34 6.66 4.68 7.32 4 8 C1.375 7.625 1.375 7.625 -1 7 C-1.625 5.1875 -1.625 5.1875 -2 3 C-1.34 2.01 -0.68 1.02 0 0 Z " fill="#45BEB6" transform="translate(349,486)"/>
<path d="M0 0 C0.66 0 1.32 0 2 0 C0.68332435 4.60836476 -1.01719354 8.22762713 -4 12 C-6.55370161 13.08338856 -8.19226915 13 -11 13 C-9.21526335 10.82727712 -7.42280648 8.66186229 -5.625 6.5 C-5.11710938 5.87996094 -4.60921875 5.25992188 -4.0859375 4.62109375 C-2.76792394 3.04294593 -1.38787368 1.51707513 0 0 Z " fill="#343434" transform="translate(566,558)"/>
<path d="M0 0 C2.125 0.375 2.125 0.375 4 1 C4.625 2.875 4.625 2.875 5 5 C4.34 5.66 3.68 6.32 3 7 C0.875 6.625 0.875 6.625 -1 6 C-1.625 4.125 -1.625 4.125 -2 2 C-1.34 1.34 -0.68 0.68 0 0 Z " fill="#79858F" transform="translate(862,498)"/>
<path d="M0 0 C-0.33 1.98 -0.66 3.96 -1 6 C-2.32 5.67 -3.64 5.34 -5 5 C-5.33 3.35 -5.66 1.7 -6 0 C-3.50907189 -1.24546405 -2.58919267 -0.7767578 0 0 Z " fill="#46BFB7" transform="translate(270,425)"/>
<path d="M0 0 C2.475 0.99 2.475 0.99 5 2 C5 2.66 5 3.32 5 4 C5.99 4.99 6.98 5.98 8 7 C3.71 6.01 -0.58 5.02 -5 4 C-3.68 3.34 -2.36 2.68 -1 2 C-0.67 1.34 -0.34 0.68 0 0 Z " fill="#4C4B4A" transform="translate(495,479)"/>
<path d="M0 0 C2.31 0.33 4.62 0.66 7 1 C6.67 2.32 6.34 3.64 6 5 C3.69 4.67 1.38 4.34 -1 4 C-0.67 2.68 -0.34 1.36 0 0 Z " fill="#232323" transform="translate(488,477)"/>
<path d="M0 0 C1.65 0 3.3 0 5 0 C5 1.65 5 3.3 5 5 C3.0625 5.5625 3.0625 5.5625 1 6 C0 5 0 5 -0.0625 2.4375 C-0.041875 1.633125 -0.02125 0.82875 0 0 Z " fill="#556D7F" transform="translate(621,520)"/>
<path d="M0 0 C0.66 0 1.32 0 2 0 C1.67 0.99 1.34 1.98 1 3 C0.8535286 4.55266653 0.75305926 6.10995662 0.68359375 7.66796875 C0.64169922 8.56064453 0.59980469 9.45332031 0.55664062 10.37304688 C0.51732422 11.30181641 0.47800781 12.23058594 0.4375 13.1875 C0.39431641 14.12787109 0.35113281 15.06824219 0.30664062 16.03710938 C0.20061335 18.35792854 0.09854971 20.67885325 0 23 C-0.33 23 -0.66 23 -1 23 C-1.02887512 19.35418313 -1.04675585 15.70839537 -1.0625 12.0625 C-1.07087891 11.02158203 -1.07925781 9.98066406 -1.08789062 8.90820312 C-1.09272461 7.42416992 -1.09272461 7.42416992 -1.09765625 5.91015625 C-1.10289307 4.99371338 -1.10812988 4.07727051 -1.11352539 3.13305664 C-1 1 -1 1 0 0 Z " fill="#697984" transform="translate(637,502)"/>
<path d="M0 0 C5.75 1.875 5.75 1.875 8 3 C8 3.99 8 4.98 8 6 C4.17902761 5.46930939 1.93828597 4.50298434 -1 2 C-0.67 1.34 -0.34 0.68 0 0 Z " fill="#2F2D2C" transform="translate(500,481)"/>
<path d="M0 0 C3.77545388 1.09068668 6.47043472 1.9083091 9 5 C3.58461538 5.36923077 3.58461538 5.36923077 0.625 3.5 C0.08875 3.005 -0.4475 2.51 -1 2 C-0.67 1.34 -0.34 0.68 0 0 Z " fill="#3B3939" transform="translate(508,485)"/>
<path d="M0 0 C0.33 0 0.66 0 1 0 C1.125 7.625 1.125 7.625 0 11 C-0.99 11 -1.98 11 -3 11 C-2.01 7.37 -1.02 3.74 0 0 Z " fill="#424343" transform="translate(635,466)"/>
<path d="M0 0 C1.32 0.33 2.64 0.66 4 1 C4 2.32 4 3.64 4 5 C2.68 5 1.36 5 0 5 C0 3.35 0 1.7 0 0 Z " fill="#848F9A" transform="translate(879,499)"/>
</svg>
